# xmcd
#
# Track frame offsets:
#	150
#	16918
#	58906
#	95964
#	131036
#	169659
#
# Disc length: 2490 seconds
#
# Revision: 1
# Processed by: cddbd v1.5.2PL0 Copyright (c) Steve Scherf et al.
# Submitted via: audiograbber 1.83.01
#
DISCID=5109b806
DTITLE=Paul van Dyk feat. Rea Garvey - Let go
DYEAR=2007
DGENRE=Trance
TTITLE0=Let go  (Single Edit)
TTITLE1=Let go (VANDIT Club by PvD)
TTITLE2=Let go (PvD Clubmix)
TTITLE3=Let go (TV Rock Remix)
TTITLE4=Let go (Alex Kunnari Remix)
TTITLE5=Let go (Pinelli Remix)
EXTD=
EXTT0=
EXTT1=
EXTT2=
EXTT3=
EXTT4=
EXTT5=
PLAYORDER=
